<svg xmlns="http://www.w3.org/2000/svg" id="Calque_1" data-name="Calque 1" viewBox="0 0 298.9 209.5"><defs><style>.cls-21{fill:#faeafe}.cls-75{fill:#fefbfe}.cls-84{fill:#ead6f8}</style></defs><path fill="#8f8f8e" d="m294.1 156.5 4.8 2v4.7c-3.3.5-4.7 7.5-9.5 2.7-1.8-4.9 2.3-6.7 4.7-9.4Z"/><path d="m237 84 17.4 15.6c-2.5 4.4-.4 7.3 3.3 9.8 3.8 2.6 2.8 8.7 7.6 10.7 9.5 1 8.2 9.3 10.3 15.3l-.1-.3c1.3 1.4 1.4 2.9.5 4.5-2.5 2.3-5.7 1.6-7.1-.5-4.7-6.5-11.3-10.5-17.4-15.2-1.6-2.8-5.1-3.4-7.2-6 1.5 2.5 4.2 3.1 6 4.9 7.3 7.6 12.2 19 26 16.7 3.3.4 4.8 2.5 5.5 5.6-.6 6.6-1.8 12.8-7.9 16.9-9.1 3.6-16.7 0-23.2-6a33.2 33.2 0 0 0-13-7.4c6 6.4 9.2 14.6 11 23.5-4.5 4.2-6.6 12-15 10.8-5-2.2-9.9-6.5-15.7-1.8-2.3 1.6-4.6 2.9-7.5 1.5 1-6.2-5.4-2-6.8-4.8.1-7.2 1-14.1 9.3-16.8 3.6-4.3 2.7-8.6 0-12.8-3.1-4.4-8.4-7.4-9.2-13.3 0-2.4.8-4.3 3.1-5.3 2-.8 6.2 1.2 4.6-3.9-1.2-3.8-4.4-7.5-1.4-11.8 7.2.3 9.1 7 13.4 10.7 2.2 3.7 4.4 7.3 10.5 7.3-1.7-4.9-6.4-6-8.6-9.3-2.8-3.4-5.1-7-3.6-11.7.9-8.4-6.8-4-9.8-6.5-4-2.4-7.6-5.7-11.6-8.2a61.5 61.5 0 0 0-30-39.2 9 9 0 0 1-1.7-2.7c-.4-5.3-4.7-8-7.9-11.5-1.7-3 3-5.5.9-8.6-2.5-5.4-7.2-9-11.1-13.1-2.1-4-4.8-8 1.3-11 1-.2 2-.2 3 0 4.6 1 2.3-6.3 6.7-5.4 13.2 4.7 20.1 18.9 34.3 22.8 4.5 1.2 2 9.4 6.6 12.8 12.5 9 19.8 22.4 28.7 34.5-1 3.2-1.7 6.7-5.4 8.5 3.8 0 7.6-1 11.1.8Z" class="cls-75"/><path fill="#bac2ce" d="M121.5 198.2c-6.6-4-14-1.6-20.9-2.5-8.4-2.8-17.3.7-25.8-2-15.3.2-30.4-2.5-46.1-.6C7.6 195.6.3 187 .3 165.7c0-6.2.4-12.4-.2-18.6-.7-7.7 1.6-14 7.8-18.3C19.2 121.1 22 107.1 32 98.1 41.4 89.8 48.5 79 55.7 69c10.3-14.2 26.5-22.2 35-38.3a32 32 0 0 1 33.5-16.7c.6 1 .8 2 .5 3.2-6 12-14 21.6-25.8 28.7-6.6 4-7.9 13.8-15 18.4-3.3 8.4-12.7 12.3-15.5 21.1-.5 2.7-1.3 5.3-3.7 6.9-8.6 2.6-9.8 11-13.3 17.5a7.8 7.8 0 0 1-3.3 3.3c-8.4 4-12.7 11.8-17.4 19.1l-1.8 2.5c-3.8 4.6-8.1 8.9-9.2 15-.4 4.2 1.2 7.6 3.8 10.6 5.5 6 13.9 8.8 17.8 17 2.2 4.5 8.5 4.2 13.5 4a292 292 0 0 1 52.3.6c8.3 2.9 16.9.9 25.2 2 6.1 2 12.6 1.7 18.8 3 3.2 1.5 7.8 1.4 7.9 6.7-5.4-.4-7.8 3-9.6 7.2a7.3 7.3 0 0 1-6.5 1.8 9 9 0 0 1-4.2-2.6c-5.1-7.3-11.6.3-17.2-1.6Z"/><path fill="#6e648d" d="M210.3 181.9c3 .9 4.7-1 6.7-2.6 6-1.3 11.5 0 17 2.2 7 1 7.5-7.9 13.2-9 6.3-.8 12.6-1.7 18.6 1.4 1.1 1 1.3 2.1.4 3.3 0 3.2-1.1 6-4.7 4.3-7.8-3.8-14.3-1.2-21.6 2.2-9.3 4.3-19.7 3-29.7 2.3a2.6 2.6 0 0 1-1.2-2c.2-1 .6-1.6 1.3-2.1Z"/><path fill="#5c5693" d="M210.2 184.5v1.5l-2.1.9c-6 7-14.4 1.6-21.3 4.3-5.4 1.3-11 2-16.3 3.9-4.4 1.5-8 1.4-11.5-1.6l-7.3-4.5c.8-1 1.8-1.8 3-2.2 4.1-1.3 8.4-.9 12.7-1 5 0 10 .4 15-.4q1-.2-.8-4.8c1.7-3.2 4.4-3.1 7.4-2.8l8.3 2.3c4.2 1.7 9.6.2 13 4.4Z"/><path fill="#706b77" d="M266.2 177.2c0-1-.2-1.9-.3-2.8-1.1-1.5-1.1-3-.4-4.7 1-1.6 2.4-3 4.3-3.6 10.7-3.7 13.4-11.4 10.6-21.7-.9-2.3-2.4-4-4.7-4.8v.1l-.2-4.6c6.7 3.2 10.7 9 11.7 15.9.8 5 3.4 5.2 7 5.5.5 4.2-4 5.9-4.8 9.4-8.5-5-10.2 6.8-17 7-2 0-4.1 2.8-6.2 4.3Z"/><path fill="#5c5784" d="M121.5 198.2c6.2-2.6 12.5-11 18.6.2-1.2 2-4 1.4-5.5 3.4 2.8.2 5.5.5 8-.9l6.8-.2a12.7 12.7 0 0 1-14 8.7c-5.8-.7-13.4-2.4-13.9-11.2Z"/><path fill="#5b5093" d="M125.2 14c9.3-6.8 16.5-19.1 31-11.7-2.5 3.1-6.5 2.9-9.7 4.6a20.5 20.5 0 0 0-7.7 5.2c-4 4.4-8 9.1-13.6 1.8Z"/><path fill="#bfc5ce" d="M186.8 191.2c1.4-3 3.5-6.1 6.9-4.1 5.1 3 9.6 0 14.4-.2-5 11.9-13.3 7-21.3 4.3Z"/><path fill="#a9a9d6" d="M237 84c-6.1 2.1-12.2 4.4-19.9-.7 6.5-1.5 11-4 14-8.5 2 3 4 6.1 5.8 9.2Z"/><path fill="#d9c3f4" d="M145.2 5c3.2-3 7.2-2.3 11-2.7 2.1 0 4.2.2 5.4 2.4-3 1.3-.5 6.7-5 6.8-2.7-4.3-10.6.8-11.4-6.5Z"/><path fill="#78777a" d="M263.9 121.2c-5.4-3.7-5-12.2-12.5-14.7-2.1-.6 2.7-4.1 3-7l9.8 18.5c1 1.2 1 2.3-.3 3.2Z"/><path fill="#7d69ee" d="M125.2 14c6.3 4 9.3-1.1 12.9-4.7l1.2 1.6c-.6 10.7-3.3 12.5-15.6 10.7-1.3-2-1.2-3.7.3-5.5l.2-2.2h1Z"/><path fill="#737373" d="m263.9 121.2.3-3.2c9.8 1.9 13 8 11.4 17.4-4-4.6-2.6-13.8-11.7-14.2Z"/><path fill="#d7dce3" d="M74.8 193.7c8.6.7 17.5-2.4 25.8 2-8.6-.6-17.5 2.4-25.8-2Z"/><path fill="#fcf2fe" d="M207.7 130.6c-2 1.2-2.2 3.2-2.3 5.2-3.6 4.2-7.3 2-7.8-1.4C196 125 187 121.8 184 114c4.8 8.4 15.4 13.8 13 26-5 3.8-8.1 10.1-14.6 12.3-2.3.3-4.1-.8-5.7-2.3-8.3 0-17 1-22.2-8-3-7.8-4.7-15.4 3.8-21.1 8.7-5.2-4.2-7.5-1.5-12-.3-2 0-4.2 1-6.1.8-.8 1.7-1.4 2.8-1.6 3.3-.7 5.3 3.2 8.5 2.3 1.6-3 0-6 0-9-.2-3 2-4.6 4.1-6.3 2.7-4.7.5-9.9 1.7-14.7 1-4.2 1.9-8.8 8.1-6 3.1 4.6 2.3 9.6 1.7 14.6a28 28 0 0 0-.8 16.5c2 6.6 9 2.2 12.4 5.7-3.3 11.8 6.8 17.8 11.4 26.2Z"/><path fill="#6645ea" d="M154 11.4c-8.5 1.6.4 6.7-2 9.5.5 2.8.2 5.4-.8 8-2.4 4.2-2.5 7.4 1.8 11 9.7 8.3 8.6 15.4-2.7 22-2 1.9-4.4 3-7 3.8-2.3.5-4.2 1.7-6.4 2.3-4.8 1.6-7.8.6-5.5-5.2 1.4-3.6 2.2-7.1 1.6-11 1.3-15 5-29.3 10-43.4 3.7 1.2 9-3.6 11 3Z"/><path fill="#b995f1" d="m266.4 170.3-.5 4c-6.2-.2-12.9 3.2-18.7-1.8-6-7.3-3.9-20.3-16.2-23.5-1.5-.4-2-2.5-.8-3.9 1.5-2 4-3.5 5.8-1.3 4.6 5.3 12.5 4.4 17.2 10.8 4 5.2 12 8.2 20 5.9 1.5 0 3 .5 2.4 2.5-1 2.9-3.3 3.6-6 3.7-3 0-6-.6-8.9 0a4 4 0 0 0-2 .7c1 1 2.4 0 3.6.5 1.6.3 3 1 4 2.4Z"/><path fill="#b4a4f0" d="M207.7 130.6c-14.1-8.1-16.4-13-11.5-25.4-1.3-1.3-1.5-2.9-.7-4.5 5-4 5.3 5.3 9.6 3.5 4.3 2.2 8 4.6 5.2 10.3l6.8 19.2c-4.9 2.5-6.3-2.5-9.4-3Z"/><path d="M182 67.7c-9.5 6-1.6 15.8-5 23.2 0 .2-.5.4-.8.4-.3 0-.7-.3-1-.5-5.8-8.3-1-19-6.3-27.4-1.6-3-2-5.8 1.8-7.5 15.9 1.9 19.7 16.2 27.8 26.2 3.8 4.7 4 8.4 2.5 13.3-.7.8-1.6 1.2-2.7 1.3-4.2-.8-2.8-6-6.1-7.6-8.8-4.5-5.6-14.8-10.2-21.4Z" class="cls-84"/><path fill="#8c60db" d="M170.8 55.9c-.5 1.7-3.6 3.2-.5 5.2 2.1 2.3 2.3 6-.5 6.3-4.5.6-7.8 5-12.7 3.3-2.2-2.5-1-7.4-5.7-8.2-1-.4-1.7-1.1-2.3-2 10.3-7.5 10.6-12.2.2-19.4-7.8-5.4-3.6-9.4.7-13.7 4.9 1.8 7.6 7.6 13.5 7.5 2.6 3.1-1.7 4.2-1.9 6.4.5 5.8 4.5 9.2 8.6 12.4.2.8.3 1.5.6 2.2Z"/><path fill="#bfa3e5" d="M196 139.9c-.2-13.6-11.6-19.6-21.3-30 14.2 2 18.3 11.9 23.1 20.3 2 3.4 1.9 7.9 7.6 5.6l10 11.2c.4 2-.7 2.7-2.4 3.1-4.6-1.1-6.6 3.3-10 4.8-9.4.2-4-6.5-4.8-10.4-.4-1.7-1.6-3-2.2-4.6Z"/><path fill="#beb0f2" d="m198.6 95.6 2.4-.2c6-1.2 8.3 3.7 11.4 7 4 3 11.3 1.7 11.9 9.1-2.8 4 1.4 6.5 2.2 9.7.6 3.3 1.3 6.7-4.1 4.9l-12-11.6c-.2-4.6-3.2-7.3-6.9-9.5-1.7-3.1-6-4.8-5-9.4Z"/><path fill="#c4a3e5" d="M203.1 154.2c3-2 1.4-12.7 9.5-5-3.4 6 6.9 10.2 2 16.3-2-.1-6-4.3-5.6.6.4 5.4-4 7-5.5 10.5l-1.2 1c-2.6-.6-3-2.7-3.2-5 3.8-5.6-1.5-13.2 4-18.5Z"/><path fill="#ebe2f5" d="M268 165c3 0 7.2 1.3 5.2-4.5 5-4.2 4.2-11 7.2-16.1 6.6 9.9 4.7 18-5.5 22.7-2.8 1.3-5.7 2.1-8.5 3.2l-6-.2c.7-4.5 3.3-6 7.6-5Z"/><path fill="#c7bee8" d="M252.4 123.6c7 2.6 14.4 4.3 16.2 13.5.3 1.8 4.2 3 7.1 2.6-8.3 5.1-13.6-.5-18.6-5.7-3-3-5-6.8-7.5-10.2.9-1 1.8-1 2.8-.2Z"/><path fill="#e3c4f9" d="M163.5 35c-10.4 8-9.5-4.2-13.5-7.6 0-2.4-1.3-5.1 2-6.4 7.6 1.6 10.7 6.8 11.5 14Z"/><path fill="#a48ae2" d="M222.4 126.1c4.1.8 2-3.9 4.1-4.8 2.6 1.6 5.3 3 7.7 5 2 1.6 6.8 2.9 4.2 6.1-2.1 2.8-6.1 6.1-10.5 1.4-2.2-2.4-6.4-3-5.5-7.7Z"/><path d="M214.7 165.5c.2-2.3 1-5.7-1.6-6.2-14.6-2.7-1-6.7-.6-10l2.8-2.3c6.2 6.4 2.9 12.5-.6 18.5Z" class="cls-21"/><path fill="#bda0e4" d="m252.4 123.6-2.8.2a22 22 0 0 1-13-8.6c-.3-.4 1-2.6 1.5-2.6 6.4 0 9.4 5.5 13.7 8.8.5.3.4 1.4.6 2.2Z"/><path fill="#ad7ad2" d="M170.2 53.8c-8.8 0-12.6-3.6-8.6-12.4 4.7 2.8 11.8 4 8.6 12.4Z"/><path fill="#9075c8" d="M234 181.5c-5.9.8-11.7 1-17-2.2 4.4-5.4 9.5-4.7 17 2.2Z"/><path fill="#a68fd7" d="M210.2 184.5c-4.6-1.4-10 2-14-2.4-.7-6 4.4-3.4 6.9-4.7l.4-.8c1.7 2.6 10.2-3.8 6.8 5.3v2.6Z"/><path fill="#a689de" d="m224.3 111.5-11.9-9c13.3.6 13.4.7 11.9 9Z"/><path fill="#a086ec" d="M154 11.4c-3.3-3.8-7.6-1.4-11.5-2-1.6 1.3-3.1 1.3-4.6-.1h.2c1.7-2.5 4.2-3.8 7-4.3 2.7 4.1 10.6-.9 11.4 6.5H154Z"/><path fill="#c4cafa" d="M47.8 112c.7-.3 1.1-.7 1.4-1.3.8-1.9 1.4-4 3.9-4.1 1 .3 1.7 1 2 2 .5 4.2-2.5 6.6-4.5 9.5-2.1 3-3.4 6.4-4.7 9.8-4 8.8-7.8 17.6-12.3 26.1-1.9 3.7-3.5 8-8.5 8.5-1.8-.3-3.4-1-5-1.7-1.4-3.6-4.3-6.7-3.6-11 3.8-5.7 7.7-11.4 11.8-16.9v.1c6.4-7.1 9.8-17 19.5-21Z"/><path fill="#bcc1fa" d="M63.6 91c2.4-1.8 1.9-4.4 2-6.8 3-5.5 7.7-9.1 13.8-10.8 7.9 3.5 1.4 8.6 1.2 12.8-.3 4.7-2.4 9-6.2 12.1l-2.6 1.9c-3.2 1.8-5.7 4.6-8.9 6.5-3 1.4-5.8 3.3-9 .5v.1c-1.8-8.4 3.8-12.5 9.7-16.4Z"/><path fill="#52537e" d="m124 16.1.9 4.8c-.2 13.2-10.7 19-18.9 26.6-9 .7-9 11.2-15.7 14.6-1.3 1-2.8 1.8-4.4 2.2-1.8.3-3.4 0-4.6-1.5C93 45 113 34.7 124 16.1Z"/><path fill="#3f408a" d="m107.1 184.6-55.5-.5c-.7-1.3-.6-2.4.5-3.4 1-.8 2-1.4 3.2-1.9 8.6-3.5 17.6-2 26.5-2.5 3.8 0 7.6.1 11.4.6 6 2 12.6 1 18.3 4.1 1 1 1.3 2.1 1 3.4-1.7 1.1-3.6 1-5.4.2Z"/><path fill="#5b6386" d="M51.6 181.4v2.7c-7-.4-12.7-1.5-15.4-10.1-2.1-7-12.6-6.4-16.2-13.2l5.8.5c3.4.7 7 .8 10 3 2.4 1.7 5 3.3 7 5.5 1 2.4.6 5.7 4 6.9 2 1 5 1.3 4.8 4.7Z"/><path fill="#5a6480" d="M47.8 112c-8.1 5.5-10.6 16.3-19.5 21 4.2-9.1 8-18.7 19.5-21Z"/><path fill="#5c47ae" d="M142.5 200.9c-5.2 8.5-10.1 3.8-16.5-.3 5.2-3.7 9.8-1.8 14-2.2l2.5 2.5Z"/><path fill="#546284" d="m81.3 62.8 5 .2c1.6 3.5-2 5-2.9 7.4-.9 1.7-2.3 3-3.8 4.3-5.7 1.6-9.1 6.7-14 9.5 1.6-9.8 14-11.6 15.7-21.4Z"/><path fill="#413c76" d="m154.7 188.8-3 .2c-6.1-.8-12.7 1.7-18.3-2.8-.8-1.4-.5-2.5.9-3.3 6.5-2.5 13-2.7 19.4.5 1.6 1.5 2.1 3.3 1 5.4Z"/><path fill="#5b5e88" d="M63.6 91c-3.1 5.4-9.2 9.2-9.7 16.3l-4.7 3.4c3-8 2.2-18.6 14.4-19.8Z"/><path fill="#61658b" d="m133.1 184.3.2 2c-8.7-.1-17.6 1.8-26.2-1.7l5-.7c7.1-4 14.1-4.4 21 .4Z"/><path fill="#5c667e" d="M28.4 133c-1.6 7.2-6.7 12-11.8 16.8A24 24 0 0 1 28.4 133Z"/><path fill="#b68af0" d="m177.9 148.7 4 2.5c8.2-.2 10.4 6.3 13.5 11.8.6 2.3.7 4.5 0 6.7-1.5 3-4.2 4-6.9 5.5-2.7 1.4 1.5.7 1.1 2 .3.9.2 1.8-.4 2.6-2.3.2-5-1-6.6 1.8-7.9 2.1-13.3-3.1-19.4-6.5-.4-3 1.7-4 4-4.6 1.6-.2 3.1-.2 4.6 0 4.4.3 5-2.8 5.5-6 .1-.7.6-2-1-2.2-.1 2-.6 3.8-3.3 3.4-.7 0-1.2-.7-1.6-1.5-2.3-7 0-12.2 6.5-15.5Z"/><path fill="#f6e2ff" d="M163.6 174.8c7.3-.6 12.5 5 19 6.8 1.7 1.8 6.1 2.8 1.5 6.1-8 1.6-13.9-7.3-22.1-4.3-1.6.3-3.2.2-4.7-.4-2.3-1.7-1.3-3.5-.2-5.4a8.6 8.6 0 0 1 6.5-2.8Z"/><path fill="#9d7de9" d="M161.1 181.8c4.6-3.5 9.1-3.1 13.2.6 3 2.6 6.1 4.3 9.8 5.3-5 2.2-10.4 1.1-15.6 1.2-3-1.9-6-3.5-7.4-7Z"/><path fill="#7046d9" d="M161.1 181.8c4.7.1 5.5 4.1 7.4 7h-13.8l-.6-4.5.4-1.3c.6-.6 1.3-1.1 2.1-1.3l4.5.1Z"/><path fill="#815fcc" d="m189.2 179.8.2-2.3c1.3-2.4 4-3 6-4.5 1.7-1 3.5-2 5.7-1.7-.2 2.3-.2 4.6 2 6.1l-7 4.7c-2.4-.4-5.2.3-7-2.3Z"/><path fill="#4127e0" d="M105 47c6.4-8.9 15.8-15.5 19.9-26 6.7-1.3 14.5-1.4 13-11.7l4.6.2c2.2 12.3-5 23.1-5.8 35l-1.2 9.1c-8.9 4-17.8 10.8-26.7 0-1.6-2-4.2-3.5-3.8-6.7Z"/><path fill="#b68cf7" d="M161.4 121.4c-9 5.2-5.9 13.4-5.1 21-1 2.7.9 5.2.2 7.9a19 19 0 0 1-5.7 10.2c-1.9 1.6-4 2.1-6.3 1-1.2-1-2.9-2.3-2.7-3.6 2-15.3-5.5-31.4 4-46 6.6-1.7 8.7 5.4 13.6 7 .8.6 1.5 1.5 2 2.5Z"/><path fill="#b483ec" d="M156.5 70a38 38 0 0 0 13.8-8.9c7.6 9 4.3 19.7 4.9 29.7-3.3 0-4.7 1.6-4.5 4.8-2.4 6.7-7.5 1.6-11.3 2.6-5.6-1.2-7.9-5.1-3.2-8.5 7.4-5.3 4-9 0-13.4-.8-.8-.8-2.1-1-3.3.1-1 .6-2 1.3-3Z"/><path fill="#ae73ed" d="M154.3 149.4c0-2.5-.6-5.2 2-7l10 5.3c2.2 1.1 5 3.4 5.8-1.3.3-1.8-.6-4.4 2.3-4 3.5.4 3 3.8 3.5 6.3-2.2 5.5-6.8 10.2-5 16.8-2.7 1.6-4.8 3.5-4.3 7-2 0-4 .3-5 2.3L161 177c-8.3-6.6-.5-16.4-4.8-24-.7-1.1-.5-2.8-2-3.6Z"/><path fill="#dbc7fc" d="M158.8 121.3a23 23 0 0 1-11.3-9.5c-4.2-1-6.2-3.4-5.7-7.8 2.7-6.5 7.8-7 13.7-5.4 1.8.8 3 2 3.4 4l-.5 7.6c-1.2 3.8 4.2 7.3.3 11Z"/><path fill="#d6b7f4" d="M193.7 163.4C190 159 187.2 154 182 151c5.6-2.6 6-11.6 14-11.2 2 0 3.8.4 4.9 2.4-6.6 5.6-1.8 15-7.2 21Z"/><path fill="#ab82de" d="M182 67.7c4.9-1.2 4.6 3.3 4.5 5.3-.5 6.5 4 10.5 6.9 15.2-.1 2.6-1.9 3.6-4.2 4-1 0-2-.3-3-.8-2.1-2.1-5.2-3.7-4.4-7.6 0-5.3 0-10.7.2-16.1Z"/><path fill="#9f7edc" d="M196.1 100.7v4.5c-3.7-4.3-13.3 8.2-14-4.9-1.9-9-1.7-9.5 4.8-9.3l.4.3c2.8 3.2 6.4 5.7 8.8 9.4Z"/><path d="m158.9 102.6-2.4-2.2c-.1-2 1-3.4 2.3-4.7h11.9c3.3 3.8 3.1 7.7.2 11.7-3.7-.7-4.7-7-9.8-4.7H159Z" class="cls-84"/><path fill="#d6bcf8" d="M187 91c-7 .4-4 5.8-4.9 9.3-3.6-5.4-3.1-10.9-.4-16.5 1.5 2.6 5.6 3.3 5.2 7.2Z"/><path fill="#ad93d0" d="M158.8 121.3c1.3-3.8-4.9-7.3-.4-11-1.1 4.2 11.5 4.9 3 11h-2.7Z"/><path fill="#b38ed1" d="M161.1 102.7c3.8-3.6 5.8-2.6 9.8 4.7-6.3 4.7-5.4-5.6-9.8-4.7Z"/><path fill="#5932e2" d="M110.1 51.3c5.2 4.5 10 10.5 16.8 1.9 2.5-3.1 5.7 1 8.6.4 3.2 5.2-1.6 8.4-3.2 12.7 4.3 1.4 6.2-4.4 10.2-3.4 1.5 5.7-3.4 8-6.2 11.2-4.4 5.2-10.3 9.1-13 15.8-3.2 10.1-2.8 21.3-8.2 30.8l-2 2.9a144 144 0 0 1-13.6 15.9c-1.6 1.5-3.3 3.9-5.9 2.4-2.1-1.2-2.5-4-2-6.2 1.1-7 3-13.6 7.2-19.5 4.7-4.4 5-10.3 5.2-16.1a69 69 0 0 1 8.8-19c1.9-3.9 9.8-6 3.1-12.1-3.8-3.2-8.3-3.3-13-2.6a6.4 6.4 0 0 1-5.4-3.2c-.3-1-.4-2.1-.1-3.2 1.9-6.3 8.7-5.4 12.7-8.7Z"/><path fill="#8351eb" d="M121.5 88.6c3.4-11.5 15.7-15.7 21-25.6l6.7-2.5.5.2c1.6 1.9 2 4 1.3 6.4a55.5 55.5 0 0 0-13.6 35.6c-1.8 4.8-.7 9.7-1 14.6-1 2.7-3 3.2-5.4 2.4-8.8-8.7-7.2-20.5-9.5-31Z"/><path fill="#8a61dd" d="M268 165c-3.2.8-5.4 2.8-7.6 5.1-2.1-.2-5.7 0-6.1-.9-1.2-3.1 2-4.4 4.2-5.1 3.1-1 6.6-2 9.5 1Z"/><path d="M196.1 100.7c-6-.2-8.6-3.7-8.8-9.4l6-3.1c6.2-.6 1.6 6.3 5.2 7.4l5 9.4c-4.4 2-3.6-5.1-7.4-4.3Z" class="cls-75"/><path fill="#dfc4f9" d="M149.4 67.5c0-2.3.2-4.5.3-6.8 6.7 0 13.8-.4 6.8 9.4l-.3 2.3c-3.7.4-5.3-2.2-6.8-5Z"/><path d="M193.7 163.4c1.5-7.3-3.5-16.9 7.2-21 1.7 2.3 1.6 4.4-.5 6.8-2.6 3.2-.4 4.5 2.7 5-1.1 5.6 3.9 12-2 17l-4.8 3.8c-4.5.3-3.7-2.2-2.6-4.8v-6.8Z" class="cls-21"/><path fill="#7666fb" d="m53.9 107.3 8.6-2.5c6.1-3.5 7 3.8 10.8 5.2l2.9 1.1c3.5 1.8 6 4.5 7.2 8.3.2 1 .3 2.1.3 3.2-1.3 5.7-.7 9.9 4.7 14.1 4.3 3.5 10.5 7.2 9.3 14.8-2 4.8 1 10.3-2.1 15-3.3 2-6.8 2-10.3.6-.3-.2-.8-.4-.9-.7-1.2-4.3-3.2-5.8-6.6-4.9-4.3-3.4-3.3-8.3-3.6-12.9-3-7.2-9.3-12.7-10-21.2-.3-3.9-5.1-2-8-2.5-4.9-.7-9.5-1.6-7.1-8.4 1.6-3.1 4.8-5.3 4.8-9.2Z"/><path fill="#8c77f4" d="M49 116.5c0 7.5 6.2 6.2 9.9 5.5 7.4-1.3 10.1 1.3 9 8.3-1.3 8.1 8.4 9.8 9.3 16.6-7.2 5-14.4 8.4-20.7-1.4-.8-6 3.5-10.5 5.3-16.5-1.8 3.6-4 5.8-7.5 6.3-6.3-.1-11.7-1.1-9.9-9.6.8-3.5 1.8-6.8 4.7-9.3Z"/><path fill="#8ea5f4" d="M44.4 125.7c.7 7.5 6.1 7.4 11.6 7.2.4 9.7-7.7 14.9-11.8 22.2-3.3 3.5-4 9.1-9.2 11a17 17 0 0 1-9.2-4.8c8.3-10.8 11.4-24.2 18.6-35.6Z"/><path fill="#a7a4fc" d="M79.6 74.7c.1-2 .4-3.9 2.4-4.9 7.9-6 9.7-.1 11.5 5.8 4.6 6.7 6.7 12.1-4 15.6-4.2 1.3-4.6 7.6-6.8 11.7-2 3.8-4.2 6.9-8.7 2.6-1.7-2.5-1.8-5.3-1.5-8a33 33 0 0 0 7.2-22.8Z"/><path fill="#2f15ca" d="M72.5 97.4c2.7 1.8 2 4.8 2.7 7.3 0 2.5 5.5 5.2-.3 7.5h-1.2l-1.1.1c-6.1-3.8-4.6-8.8-2.1-13.9a12 12 0 0 0 2-1Z"/><path fill="#5c4ae3" d="M70.5 98.4c.6 4.7-2.1 9.8 2.1 14-2.5 2-4.3 1.2-4.6-1.8-.3-3.7-1.8-5.7-5.6-5.8 2.3-2.7 4.2-5.8 8.1-6.3Z"/><path fill="#a39cf6" d="M110.1 51.3c-.6 2.7 1 7.9-4.8 5.6-4.4-1.7-4.4 2.9-6.8 4-2.2 2.6-3.7 6.7-8.4 5-2.6-.8-2.6-3-1.4-5.3 3-2.9 6.8-5.4 7.1-10 .7-7.7 5.6-3.8 9.2-3.7l5.1 4.4Z"/><path fill="#837aed" d="M88.7 60.6c3 10.1 6.6-.9 9.8.2V63c2 7 .3 12-7.2 14.1-.5-5.7-2.6-9.4-9.3-7.2-.6-3.6 2.8-4.6 4.3-6.8l2.4-2.4Z"/><path fill="#6a59f0" d="M95.6 166.1c-1.2-4.8-4.4-9.8.3-14.5 5.4 3 12.8-2.1 17.5 4.2 3 4.3 2.4 8.8 0 13.1-2.3 4-2 8-.5 12.2l-.8 1.4c-6-1.8-12.7.8-18.4-3.1-1.9-1.3-4.2-1.8-5.8-3.4-2.1-2-5-4.3-3.6-7.5 1.5-3.3 4.7-.6 7-1 1.6-.2 3-.8 4.3-1.4Z"/><path fill="#5448e8" d="m79.8 161 6.5-4.3-1.9 8.5c-2.3 4.5-4.4 9-2.4 14.1L53.8 181c-2.5-4.2-.3-7.7 1.7-11.2 1.3-1.2 2.8-2 4.4-2.5 6.6-2.3 13.6-3 20-6.3Z"/><path fill="#351ed0" d="M82 179.3c-12-6.9-.5-9.8 2.4-14.1l11.2 1c-2 5-5.8 3.5-11.3 1.7l9.4 11.4H82Z"/><path fill="#533cb9" d="m133.1 184.3-21-.4v-2.2c1-1 2-1.7 3.4-2.2 8.5-1.6 17.2-.7 25.8-.8 2 0 4 0 6 .2 3.1.7 6.9.6 7.2 5.2l-.4.2h-21Z"/><path fill="#9180ea" d="M56.4 170.5 53.8 181c-.7.3-1.4.4-2.2.4l-7.3-2.6c1.6-6.3 4-11.5 12-8.3Z"/><path fill="#c8d9fd" d="M35 166c2.5-4 3.4-9 7.4-12 4.7-1 8.8.5 12.6 3.2 1 3.5-.6 6.5-2.4 9.4-3 2.6-5.3 6.9-10.3 3.6A8.4 8.4 0 0 1 35 166Z"/><path fill="#f1edfc" d="M42.3 170.2c4.3.2 6.4-3.8 9.8-5.2 4.9-1.9 9.7-3.7 8.5 5l-4.2.5c-6.2-.4-8.6 4.8-12 8.3-8-1.1-1.8-5.6-2-8.6Z"/><path fill="#ebd3fd" d="m168.6 172.5-3.2-5.8 7.5-1.2c3.5-1.3.8-5.8 3.9-7.5 3.2 4.7 4.9 10 2 14.9-2.7 4.5-6.7-.5-10.2-.4Z"/><path fill="#d9bdff" d="M193.8 170.2c0 2 .5 3.8 2.5 4.8-1.5 3-4.4 2-6.9 2.5l-7.4-1 11.8-6.3Z"/><path fill="#5c38e0" d="M142.7 181.8h-28c-5.8-8.5-.6-12.6 6.4-16 .8-.7 1.8-1.3 2.7-1.9 4.4-2 9-4 4-9.8-.2-1.1-.1-2.2.3-3.3 2.2-3 3.4-7.2 8.3-7.2 7.8 3.2 2.2 13.3 8.8 17.1 1.8.1 3.6.1 4.6-1.9 5.8.4 4.6 5.3 5.1 8.6.6 4 1.6 7.5 4.8 10l-3 4.3-2.1 2.4c-2-2.4-4.7-2.1-7.4-2.2-2.6-2.1-1.8-5.4-3-9 .5 3.8.8 6.7-1.5 9Z"/><path fill="#8d55ee" d="M159.7 177.5c-5.8-.3-7.8-3.7-8-9.1 0-3.2 1.6-7-2-9.6 1-3.4 5-5.4 4.6-9.4 2.7-1.5 7-1.5 5.8 1.6-2.5 7 4.7 14-.7 20.8-.7.8 1 3.4 1.7 5.2l-.7.5h-.8Z"/><path fill="#7c54e3" d="M145.2 160.7c-9.5-1.7-2.2-13.3-9.6-16.1-2.7-8.4-4.4-16.8.7-24.8 2.2-3.6.2-6.6 0-9.8-.3-1.9 0-3.6 1-5.2 1.8-1 3.4-1 4.8.7l5.4 6.3c-3 8.4-6.5 16.8-1.3 25.7.8 1.5 3.2 3 .8 4.7-8 5.6-3.6 12.1-1.8 18.5Z"/><path fill="#fbf1fe" d="m142 105.5-4.1-.6c-1.1-.5-1.9-1.2-2.3-2.3-2-7.3.9-14.7 1-22 .1-3 6.6-10.4 12.8-13.1 3.6-.3 4.6 3.2 6.8 4.9 1.5 6.8 8.5 7.9 15 12.7-7.3.9-12 2.7-14.7 7.5-2 3.2.9 2.6 2.3 3.1 0 2-.4 3.7-2.3 4.7-5.7-.8-10.8 0-14.4 5Z"/><path fill="#6948f1" d="M111.6 156.2c-2.2-1.3-4.8-3.6-7-1.5-5.4 5.2-6.5-.3-8.7-3.1.6-6.4-4-11.4-8.3-12.6-12-3.6-8.4-10.5-5.6-17.9 2-.7 3.4.7 5 1.3-1.1-2.3-3-3.2-5.5-3.3l-6.6-7c3-2.3-1-5 .3-7.4 7.7 1.8 5.6-5.5 6.8-8.4 3-6.6 5.5-12 13.7-9.8C98.1 81 87 83 91.3 77c3.7-4 5.8-8.9 7.2-14l4 2.2c3.8 1.9 5.5 5 6.5 8.9-.8 4.5 2.7 5.8 5.6 7.7l-9.5 18.9c-1.3 6.8-5.7 5.8-11 3.5 1.4 5.1 8.5 6.5 6.5 12.4-2.7 7.7-6.7 15-6.7 25l18.2-20.4c4.3 1.9 3.7 6 4.4 10.8 1.7-5.9-1-8.5-4.3-10.8 5.9-10 4.2-22.3 9.3-32.6 6.2 9.4 6.3 20.5 9.6 30.7 4.6 6.8-.2 12.2-2.6 18-1.5 2.3-2.9 4.7-5.7 5.6-7.6-.6-4.5 6-6.4 9.3-1 2.2-2.2 3.9-4.8 4Z"/><path fill="#3b18d0" d="M100.6 116.6c-3.1-4.8-6.8-9-13.3-10.3 3.3-4.3 6-8.6 10.5-3.9 4.1 4.2 5-1 7.3-1.8 2.6 6.5 2 12.1-4.5 16Z"/><path fill="#8e57eb" d="M114.6 81.7c-2.9-.7-5.7 3.3-8.2.7-2.7-2.7.3-5.3 1.2-8 1.7-4.5 5-6.9 10-7q8 5.1-3 14.3Z"/><path fill="#b698fd" d="m117.5 67.4-9.9 7-5-9.2c5.7-4 10.6-3.2 15 2.2Z"/><path fill="#a29af7" d="M126 137.6c1.4-6.2 6.3-11.4 5-18.3l4.3-2c.5-2.8-.2-6 3-7.8 2 1.6 2.8 4.5 1.7 6.1-6 9-1.4 19.6-4.4 29-3.1 1.5-1.8 7.5-7 7-7-3.6-4-9-2.6-14Z"/><path fill="#f8deff" d="M138.3 109.5c-.5 2.8.3 6-3 7.8-2.7-5-4-9.9.3-14.7l2.3 2.3.4 4.6Z"/><path fill="#968dfb" d="M60.6 170c0-6.5-5.5-3.7-8.5-5l1.8-8.8c-2.2-5.3-1.8-9.6 4.6-11.6 5.2 9.2 12.5 1.2 18.7 2.3 1 4.7-2 10 2.6 14-3.6 9.1-13.2 5.3-19.2 9Z"/><path fill="#3a19d3" d="M81.5 119c5.7-5 7.4 2.2 10.8 3.9 1.1.5.2 2.7-1 3.7-1.3 1-3 1.6-4.1.4-2-1.8-3.5-3.9-5.2-5.9 0-.7-.2-1.4-.5-2Z"/><path fill="#e5e1ff" d="M58.5 144.6c-3 3.3-3.4 7.6-4.6 11.6-4.6 2.9-7.8-.8-11.5-2.3L56 133l8.3-8.8c.4 8.3-4.5 13.9-5.8 20.5Z"/><path fill="#b1a2fa" d="m111.6 156.2 4-4.5c1.8 0 2.6 1.4 3.3 2.8 1 4 3.4 7.5 5.2 11.1-2.2 6-13.8 6.5-9.4 16.2l-2.6-.1c-3.7-2.8-5.6-5.8-2.6-10.5 2.8-4.5 4.8-9.6 2-15Z"/><path fill="#7659f7" d="M142.7 181.8c.9-5-1.8-9.4-4.4-15.1 11 2 8.5 9.4 8.9 15.2h-4.5Z"/><path fill="#7966e6" d="M124 165.6c-7.3-1-6.5-7-7.2-12.1 1.5-3.9.8-8.7 5-11.4l4.2-4.5c.5 4.7-.3 9.7 2.6 14v2.2c-1 4.1-1.7 8.4-4.6 11.9Z"/><path fill="#a277fe" d="M124 165.7c.9-4.3-3-10.4 4.7-12 4 .8 6.5 4.3 5.6 7.1-1.3 4.2-6.5 3.8-10.3 4.9Z"/><path fill="#b9b8fe" d="M121.8 142.1c-.3 4.4-.4 8.9-5 11.3-.2-.7-.6-1.3-1.3-1.7-.3-3-1.4-6.1-.6-8.8 1.2-4.4 3.8-6.9 6.9-.8Z"/><path fill="#977ffd" d="M112.2 121.1c3.1.4 6.1 1.4 6.7 5 .4 2 2.6 4.4.3 6.2-1.3 1-4 1.9-5.3 1.2-2.7-1.3-1-3.9-.3-5.9 1-2.5-1-4.3-1.5-6.4Z"/></svg>