<svg xmlns="http://www.w3.org/2000/svg" data-name="Calque 1" viewBox="0 0 289.7 299.6"><path fill="#43413f" d="M1 129c1-15 2-23 5-33C26 42 66 11 122 2l6-1c13-2 22-1 35 1l35 10a133 133 0 0 1 90 112c2 18 2 36 0 54-4 18-7 36-18 52-24 36-57 59-100 67s-83-2-117-28c-29-22-48-51-52-89v-51Z"/><path fill="#fccb5d" d="M162 12c36 6 68 20 90 49 14 18 23 38 25 61v26c0 13-6 25-9 37-1 13-9 21-17 30-24 26-54 42-90 45l-33 1c-27 0-50-12-71-30-13-14-28-28-36-47-5-10-10-20-10-32v-32c7-45 32-76 72-96a151 151 0 0 1 79-12Z"/><path fill="#453f34" d="M163 258c44-7 79-28 101-67l4-6c3 3 0 7 4 9 0 9-6 16-9 23 0 7-7 12-6 19h-3c-3-2-4-8-8-1-4 5-4 11-5 17-6 2-9 5-11 12 0 2-3 10-10 4 1-4 5-5 6-8 0-4 5-9-3-10-8 4-5 13-9 19-2 4-6 5-9 7-6-3-1-11-6-13-4 0-8 2-11 4-1 5-6 11 4 12l7-3 5 1c-8 13-18 11-30 6-3-2-3-5-3-8-1-5-4-5-7-4s-7 0-10 2c-5 5-1 12-5 17l-10-3c-2-1-3-4-3-7 0-7-4-9-10-8h-6c-7 2-2 10-7 13-10 3-19 4-25-7l4-1c4 0 9 3 9-5 0-5-4-8-9-9-6-2-6 3-6 7l-3 6-10-7c-2-9-5-17-11-24l-5-14c16 8 30 17 46 24 8 3 17 0 24 4 12-2 24 1 36-1Z"/><path fill="#c38845" d="M83 276v-4c1-5-3-12 3-13 4-1 11 2 16 5s2 10 2 15c0 4-3 3-5 2l-11-3-5-2Z"/><path fill="#d9a333" d="M62 245c12 4 13 13 11 24-13-3-16-10-11-24Z"/><path fill="#be8753" d="M49 252c-6-8-16-11-15-21 0-2 0-4 2-5s3 0 5 2c7 5 13 12 8 24Z"/><path fill="#c28b4c" d="m228 262-8 6-6 1c-1-9-3-18 9-21 3-2 5-1 6 3 0 3 1 7-1 11Z"/><path fill="#d3a843" d="M125 269q14-1 14 18c-9 6-17 0-26-2v-15c1-3 2-4 5-1 2 2 2 4 3 7 1 4 3 6 8 6 1 0 3-1 3-3 1-4-2-5-5-6l-2-4Z"/><path fill="#d4a743" d="M241 252c-7-13 2-19 11-27l2 11-13 16Z"/><path fill="#8a7456" d="M263 217c-1-9 8-14 9-23 1 10 1 18-9 23Z"/><path fill="#ab9359" d="M24 220c-3-9-8-14-9-24 7 7 11 13 9 24Z"/><path fill="#dbba6c" d="M277 148v-26"/><path fill="#464030" d="M130 239c-48-4-94-46-99-89v-28c1-21 10-37 24-51 4-2 7 0 9 4 0 5-2 8-5 11-9 11-14 23-16 37-2 8-2 16 0 24 9 41 36 66 76 77 23 6 50 4 72-6l10-7c16-8 28-20 35-37 4-8 7-16 8-25 2-7 2-15 0-22-6-47-37-75-87-83h-27c-17 3-32 10-48 17-5-1-5-5-6-9 15-13 33-16 51-21 12-2 23-3 35 1 23 6 46 12 64 31 16 16 28 33 30 56l1 7v24c-5 33-25 58-54 74-13 8-28 12-43 15h-30Z"/><path fill="#554136" d="m62 75-7-4c6-8 12-15 21-19l5 7c-4 9-10 14-19 16Z"/><path fill="#c78d40" d="M162 287q-12 1-11-18h14c4 0 6 1 7 6 1 8-5 9-10 12Z"/><path fill="#dfa928" d="M200 259c4 7 3 13 0 19l-7 3c-5 1-9 1-8-6 0-3-2-7 1-11l14-5Z"/><path fill="#e2a81f" d="M125 269c3 4 10 0 11 6 1 4 2 9-4 10-5 0-12 2-14-6v-10h7Z"/><path fill="#e7a61e" d="M202 213c-4 3-6 3-11 5-4 2-8 2-9-4 0-5 7-5 8-12-22 8-44 13-67 7v-6c3-14 4-14 18-14 9-1 17 1 25-1 3-2 2-5 3-7v-3c0-4 2-8 1-12l-2-5c-2-4-15 1-8-10 14-5 26-13 27-31-1-11 4-22-4-33l-5-10c0-4 2-7 6-8 14 1 22 11 31 20 10 11 15 25 17 39 5 2 5-4 8-5 5 0 5 3 6 6 2 16-1 31-9 45-7 17-21 28-35 39Z"/><path fill="#e2a824" d="M183 213c1 5 4 5 8 6-12 5-20 7-30 9-55 10-111-26-120-80-2-9-2-18 0-26 1-15 7-28 18-40 1-2 3-4 3-7l19-16c15-8 30-16 48-17h29c32 5 59 17 77 47 7 12 11 24 11 37 2 8 2 15 1 24-2 9-5 18-9 26h-3c10-16 10-33 8-50l-4-2c-5 0-5-5-6-8-13-40-43-60-83-62-36-3-67 11-86 43-17 26-13 53 2 79 20 35 74 46 102 38 5-1 10-5 15-1Z"/><path fill="#dca52d" d="M235 176h3c-8 17-20 29-36 37 5-10 15-14 22-23l11-14Z"/><path fill="#715d32" d="M41 122v26"/><path fill="#41413f" d="m181 78 5 7c6 11 3 24 3 35-2 16-10 25-24 30-11 3-22 3-33 4l-3 2c1 2 2 2 3 2l31 1c7 1 9 4 7 10-7 5-15 2-23 3-5 0-10-1-15 1-2 1-2 2 0 4h25c5 1 10 0 13 3 2 8-2 10-8 10h-33l-3 3c-1 4 0 8-3 11-4 5-13 1-12-2 4-15-10-12-16-16-3-2-1-5 1-7 2-3 7-2 8-6-5-3-11-5-8-12l2-3c3-2 8-1 10-6V80c0-15 2-17 17-17l31 1c11 3 20 5 25 14Z"/><path fill="#feca56" d="M183 213c-32 13-64 8-93-9a79 79 0 0 1-40-63c-5-50 37-82 78-89 30-6 57 3 80 21 15 11 23 27 29 45 0 2 0 5 2 6 0 4 1 10-5 10-5 0-6-4-6-9-4-26-19-43-42-55-15-1-28-9-43-6h-29c-3 0-4 2-5 4 0 2-1 3-3 4-19 11-35 24-41 47-7 29 8 63 36 75l6 4c2 8 10 7 16 10 21 1 43 2 64-9 4-2 6 0 8 3 3 4-1 6-3 7l-9 4Z"/><path fill="#e6a71e" d="M95 185c-1 5 4 6 7 6 5 1 5 4 4 8-27-6-46-38-46-66-1-27 19-54 46-63 3 3 3 7 3 11v65c0 9-2 9-11 13h-1c-3 4-1 8 1 12 1 2 2 5-1 6-3 2-2 5-2 8Z"/><path fill="#e6a721" d="M153 82c16 3 18 7 19 29 0 15-6 21-24 25-7 1-14 2-21-1-4-15-1-31-2-47 0-5 2-7 7-7 7 1 14-1 21 1Z"/></svg>